<svg width="388" height="369" viewBox="0 0 388 369" fill="none" xmlns="http://www.w3.org/2000/svg">
<mask id="mask0_60_5" style="mask-type:alpha" maskUnits="userSpaceOnUse" x="-130" y="-53" width="518" height="422">
<rect x="-130" y="-53" width="518" height="422" fill="url(#paint0_linear_60_5)"/>
</mask>
<g mask="url(#mask0_60_5)">
<path d="M29.25 -2.43302C29.5833 -2.24056 29.5833 -1.75943 29.25 -1.56699L-41.25 39.1362C-41.5833 39.3287 -42 39.0881 -42 38.7032V-42.7032C-42 -43.0881 -41.5833 -43.3287 -41.25 -43.1362L29.25 -2.43302Z" stroke="#E2E2E2" stroke-width="7"/>
<path d="M77.25 75.567C77.5833 75.7594 77.5833 76.2406 77.25 76.433L6.75001 117.136C6.41666 117.329 6 117.088 6 116.703V35.2968C6 34.9119 6.41667 34.6713 6.75 34.8638L77.25 75.567Z" stroke="#E2E2E2" stroke-width="7"/>
<path d="M29.25 153.567C29.5833 153.759 29.5833 154.241 29.25 154.433L-41.25 195.136C-41.5833 195.329 -42 195.088 -42 194.703V113.297C-42 112.912 -41.5833 112.671 -41.25 112.864L29.25 153.567Z" stroke="#E2E2E2" stroke-width="7"/>
<path d="M77.25 231.567C77.5833 231.759 77.5833 232.241 77.25 232.433L6.75001 273.136C6.41666 273.329 6 273.088 6 272.703V191.297C6 190.912 6.41667 190.671 6.75 190.864L77.25 231.567Z" stroke="#E2E2E2" stroke-width="7"/>
<path d="M31.25 309.567C31.5833 309.759 31.5833 310.241 31.25 310.433L-39.25 351.136C-39.5833 351.329 -40 351.088 -40 350.703V269.297C-40 268.912 -39.5833 268.671 -39.25 268.864L31.25 309.567Z" stroke="#E2E2E2" stroke-width="7"/>
<path d="M179.25 214.567C179.583 214.759 179.583 215.241 179.25 215.433L108.75 256.136C108.417 256.329 108 256.088 108 255.703V174.297C108 173.912 108.417 173.671 108.75 173.864L179.25 214.567Z" stroke="#E2E2E2" stroke-width="7"/>
<path d="M119.25 -2.43302C119.583 -2.24056 119.583 -1.75943 119.25 -1.56699L48.75 39.1362C48.4167 39.3287 48 39.0881 48 38.7032V-42.7032C48 -43.0881 48.4167 -43.3287 48.75 -43.1362L119.25 -2.43302Z" stroke="#E2E2E2" stroke-width="7"/>
<path d="M167.25 75.567C167.583 75.7594 167.583 76.2406 167.25 76.433L96.75 117.136C96.4167 117.329 96 117.088 96 116.703V35.2968C96 34.9119 96.4167 34.6713 96.75 34.8638L167.25 75.567Z" stroke="#E2E2E2" stroke-width="7"/>
<path d="M119.25 309.567C119.583 309.759 119.583 310.241 119.25 310.433L48.75 351.136C48.4167 351.329 48 351.088 48 350.703V269.297C48 268.912 48.4167 268.671 48.75 268.864L119.25 309.567Z" stroke="#E2E2E2" stroke-width="7"/>
<path d="M206.25 309.567C206.583 309.759 206.583 310.241 206.25 310.433L135.75 351.136C135.417 351.329 135 351.088 135 350.703V269.297C135 268.912 135.417 268.671 135.75 268.864L206.25 309.567Z" stroke="#E2E2E2" stroke-width="7"/>
<path d="M295.25 309.567C295.583 309.759 295.583 310.241 295.25 310.433L224.75 351.136C224.417 351.329 224 351.088 224 350.703V269.297C224 268.912 224.417 268.671 224.75 268.864L295.25 309.567Z" stroke="#E2E2E2" stroke-width="7"/>
<path d="M119.25 153.567C119.583 153.759 119.583 154.241 119.25 154.433L48.75 195.136C48.4167 195.329 48 195.088 48 194.703V113.297C48 112.912 48.4167 112.671 48.75 112.864L119.25 153.567Z" stroke="#E2E2E2" stroke-width="7"/>
<path d="M305.25 -2.43302C305.583 -2.24056 305.583 -1.75943 305.25 -1.56699L234.75 39.1362C234.417 39.3287 234 39.0881 234 38.7032V-42.7032C234 -43.0881 234.417 -43.3287 234.75 -43.1362L305.25 -2.43302Z" stroke="#E2E2E2" stroke-width="7"/>
<path d="M214.25 -2.43302C214.583 -2.24056 214.583 -1.75943 214.25 -1.56699L143.75 39.1362C143.417 39.3287 143 39.0881 143 38.7032V-42.7032C143 -43.0881 143.417 -43.3287 143.75 -43.1362L214.25 -2.43302Z" stroke="#E2E2E2" stroke-width="7"/>
<path d="M262.25 75.567C262.583 75.7594 262.583 76.2406 262.25 76.433L191.75 117.136C191.417 117.329 191 117.088 191 116.703V35.2968C191 34.9119 191.417 34.6713 191.75 34.8638L262.25 75.567Z" stroke="#E2E2E2" stroke-width="7"/>
<path d="M214.25 153.567C214.583 153.759 214.583 154.241 214.25 154.433L143.75 195.136C143.417 195.329 143 195.088 143 194.703V113.297C143 112.912 143.417 112.671 143.75 112.864L214.25 153.567Z" stroke="#E2E2E2" stroke-width="7"/>
</g>
<defs>
<linearGradient id="paint0_linear_60_5" x1="-237" y1="-89" x2="100.961" y2="333.807" gradientUnits="userSpaceOnUse">
<stop offset="0.0208333" stop-color="#DCDCDC" stop-opacity="0.8"/>
<stop offset="1" stop-color="#DDDDDD" stop-opacity="0"/>
</linearGradient>
</defs>
</svg>
