<svg width="518" height="422" viewBox="0 0 518 422" fill="none" xmlns="http://www.w3.org/2000/svg">
<mask id="mask0_20_40" style="mask-type:alpha" maskUnits="userSpaceOnUse" x="0" y="0" width="518" height="422">
<rect width="518" height="422" fill="url(#paint0_linear_20_40)"/>
</mask>
<g mask="url(#mask0_20_40)">
<path d="M159.25 50.567C159.583 50.7594 159.583 51.2406 159.25 51.433L88.75 92.1362C88.4167 92.3287 88 92.0881 88 91.7032V10.2968C88 9.9119 88.4167 9.67135 88.75 9.86379L159.25 50.567Z" stroke="#EAB7BB" stroke-width="7"/>
<path d="M207.25 128.567C207.583 128.759 207.583 129.241 207.25 129.433L136.75 170.136C136.417 170.329 136 170.088 136 169.703V88.2968C136 87.9119 136.417 87.6713 136.75 87.8638L207.25 128.567Z" stroke="#EAB7BB" stroke-width="7"/>
<path d="M159.25 206.567C159.583 206.759 159.583 207.241 159.25 207.433L88.75 248.136C88.4167 248.329 88 248.088 88 247.703V166.297C88 165.912 88.4167 165.671 88.75 165.864L159.25 206.567Z" stroke="#EAB7BB" stroke-width="7"/>
<path d="M207.25 284.567C207.583 284.759 207.583 285.241 207.25 285.433L136.75 326.136C136.417 326.329 136 326.088 136 325.703V244.297C136 243.912 136.417 243.671 136.75 243.864L207.25 284.567Z" stroke="#EAB7BB" stroke-width="7"/>
<path d="M116.25 283.567C116.583 283.759 116.583 284.241 116.25 284.433L45.75 325.136C45.4167 325.329 45 325.088 45 324.703V243.297C45 242.912 45.4167 242.671 45.75 242.864L116.25 283.567Z" stroke="#EAB7BB" stroke-width="7"/>
<path d="M161.25 362.567C161.583 362.759 161.583 363.241 161.25 363.433L90.75 404.136C90.4167 404.329 90 404.088 90 403.703V322.297C90 321.912 90.4167 321.671 90.75 321.864L161.25 362.567Z" stroke="#EAB7BB" stroke-width="7"/>
<path d="M309.25 267.567C309.583 267.759 309.583 268.241 309.25 268.433L238.75 309.136C238.417 309.329 238 309.088 238 308.703V227.297C238 226.912 238.417 226.671 238.75 226.864L309.25 267.567Z" stroke="#EAB7BB" stroke-width="7"/>
<path d="M249.25 50.567C249.583 50.7594 249.583 51.2406 249.25 51.433L178.75 92.1362C178.417 92.3287 178 92.0881 178 91.7032V10.2968C178 9.9119 178.417 9.67135 178.75 9.86379L249.25 50.567Z" stroke="#EAB7BB" stroke-width="7"/>
<path d="M297.25 128.567C297.583 128.759 297.583 129.241 297.25 129.433L226.75 170.136C226.417 170.329 226 170.088 226 169.703V88.2968C226 87.9119 226.417 87.6713 226.75 87.8638L297.25 128.567Z" stroke="#EAB7BB" stroke-width="7"/>
<path d="M249.25 362.567C249.583 362.759 249.583 363.241 249.25 363.433L178.75 404.136C178.417 404.329 178 404.088 178 403.703V322.297C178 321.912 178.417 321.671 178.75 321.864L249.25 362.567Z" stroke="#EAB7BB" stroke-width="7"/>
<path d="M336.25 362.567C336.583 362.759 336.583 363.241 336.25 363.433L265.75 404.136C265.417 404.329 265 404.088 265 403.703V322.297C265 321.912 265.417 321.671 265.75 321.864L336.25 362.567Z" stroke="#EAB7BB" stroke-width="7"/>
<path d="M425.25 362.567C425.583 362.759 425.583 363.241 425.25 363.433L354.75 404.136C354.417 404.329 354 404.088 354 403.703V322.297C354 321.912 354.417 321.671 354.75 321.864L425.25 362.567Z" stroke="#EAB7BB" stroke-width="7"/>
<path d="M249.25 206.567C249.583 206.759 249.583 207.241 249.25 207.433L178.75 248.136C178.417 248.329 178 248.088 178 247.703V166.297C178 165.912 178.417 165.671 178.75 165.864L249.25 206.567Z" stroke="#EAB7BB" stroke-width="7"/>
<path d="M435.25 50.567C435.583 50.7594 435.583 51.2406 435.25 51.433L364.75 92.1362C364.417 92.3287 364 92.0881 364 91.7032V10.2968C364 9.9119 364.417 9.67135 364.75 9.86379L435.25 50.567Z" stroke="#EAB7BB" stroke-width="7"/>
<path d="M344.25 50.567C344.583 50.7594 344.583 51.2406 344.25 51.433L273.75 92.1362C273.417 92.3287 273 92.0881 273 91.7032V10.2968C273 9.9119 273.417 9.67135 273.75 9.86379L344.25 50.567Z" stroke="#EAB7BB" stroke-width="7"/>
<path d="M392.25 128.567C392.583 128.759 392.583 129.241 392.25 129.433L321.75 170.136C321.417 170.329 321 170.088 321 169.703V88.2968C321 87.9119 321.417 87.6713 321.75 87.8638L392.25 128.567Z" stroke="#EAB7BB" stroke-width="7"/>
<path d="M344.25 206.567C344.583 206.759 344.583 207.241 344.25 207.433L273.75 248.136C273.417 248.329 273 248.088 273 247.703V166.297C273 165.912 273.417 165.671 273.75 165.864L344.25 206.567Z" stroke="#EAB7BB" stroke-width="7"/>
</g>
<defs>
<linearGradient id="paint0_linear_20_40" x1="-78.2215" y1="-14.7332" x2="389.159" y2="320.82" gradientUnits="userSpaceOnUse">
<stop offset="0.0208333" stop-color="#DCDCDC" stop-opacity="0.8"/>
<stop offset="1" stop-color="#DDDDDD" stop-opacity="0"/>
</linearGradient>
</defs>
</svg>
