<svg width="388" height="348" viewBox="0 0 388 348" fill="none" xmlns="http://www.w3.org/2000/svg">
<mask id="mask0_20_22" style="mask-type:alpha" maskUnits="userSpaceOnUse" x="0" y="-53" width="447" height="401">
<rect y="-53" width="447" height="401" fill="url(#paint0_linear_20_22)"/>
</mask>
<g mask="url(#mask0_20_22)">
<path d="M90.25 -3.43302C90.5833 -3.24056 90.5833 -2.75943 90.25 -2.56699L19.75 38.1362C19.4167 38.3287 19 38.0881 19 37.7032V-43.7032C19 -44.0881 19.4167 -44.3287 19.75 -44.1362L90.25 -3.43302Z" stroke="#D9D9D9" stroke-width="7"/>
<path d="M138.25 74.567C138.583 74.7594 138.583 75.2406 138.25 75.433L67.75 116.136C67.4167 116.329 67 116.088 67 115.703V34.2968C67 33.9119 67.4167 33.6713 67.75 33.8638L138.25 74.567Z" stroke="#D9D9D9" stroke-width="7"/>
<path d="M90.25 152.567C90.5833 152.759 90.5833 153.241 90.25 153.433L19.75 194.136C19.4167 194.329 19 194.088 19 193.703V112.297C19 111.912 19.4167 111.671 19.75 111.864L90.25 152.567Z" stroke="#D9D9D9" stroke-width="7"/>
<path d="M138.25 230.567C138.583 230.759 138.583 231.241 138.25 231.433L67.75 272.136C67.4167 272.329 67 272.088 67 271.703V190.297C67 189.912 67.4167 189.671 67.75 189.864L138.25 230.567Z" stroke="#D9D9D9" stroke-width="7"/>
<path d="M47.25 229.567C47.5833 229.759 47.5833 230.241 47.25 230.433L-23.25 271.136C-23.5833 271.329 -24 271.088 -24 270.703V189.297C-24 188.912 -23.5833 188.671 -23.25 188.864L47.25 229.567Z" stroke="#D9D9D9" stroke-width="7"/>
<path d="M92.25 308.567C92.5833 308.759 92.5833 309.241 92.25 309.433L21.75 350.136C21.4167 350.329 21 350.088 21 349.703V268.297C21 267.912 21.4167 267.671 21.75 267.864L92.25 308.567Z" stroke="#D9D9D9" stroke-width="7"/>
<path d="M235.25 230.567C235.583 230.759 235.583 231.241 235.25 231.433L164.75 272.136C164.417 272.329 164 272.088 164 271.703V190.297C164 189.912 164.417 189.671 164.75 189.864L235.25 230.567Z" stroke="#D9D9D9" stroke-width="7"/>
<path d="M275.25 304.567C275.583 304.759 275.583 305.241 275.25 305.433L204.75 346.136C204.417 346.329 204 346.088 204 345.703V264.297C204 263.912 204.417 263.671 204.75 263.864L275.25 304.567Z" stroke="#D9D9D9" stroke-width="7"/>
<path d="M180.25 -3.43302C180.583 -3.24056 180.583 -2.75943 180.25 -2.56699L109.75 38.1362C109.417 38.3287 109 38.0881 109 37.7032V-43.7032C109 -44.0881 109.417 -44.3287 109.75 -44.1362L180.25 -3.43302Z" stroke="#D9D9D9" stroke-width="7"/>
<path d="M228.25 74.567C228.583 74.7594 228.583 75.2406 228.25 75.433L157.75 116.136C157.417 116.329 157 116.088 157 115.703V34.2968C157 33.9119 157.417 33.6713 157.75 33.8638L228.25 74.567Z" stroke="#D9D9D9" stroke-width="7"/>
<path d="M180.25 152.567C180.583 152.759 180.583 153.241 180.25 153.433L109.75 194.136C109.417 194.329 109 194.088 109 193.703V112.297C109 111.912 109.417 111.671 109.75 111.864L180.25 152.567Z" stroke="#D9D9D9" stroke-width="7"/>
<path d="M412.25 225.567C412.583 225.759 412.583 226.241 412.25 226.433L341.75 267.136C341.417 267.329 341 267.088 341 266.703V185.297C341 184.912 341.417 184.671 341.75 184.864L412.25 225.567Z" stroke="#D9D9D9" stroke-width="7"/>
<path d="M362.25 147.567C362.583 147.759 362.583 148.241 362.25 148.433L291.75 189.136C291.417 189.329 291 189.088 291 188.703V107.297C291 106.912 291.417 106.671 291.75 106.864L362.25 147.567Z" stroke="#D9D9D9" stroke-width="7"/>
<path d="M366.25 -3.43302C366.583 -3.24056 366.583 -2.75943 366.25 -2.56699L295.75 38.1362C295.417 38.3287 295 38.0881 295 37.7032V-43.7032C295 -44.0881 295.417 -44.3287 295.75 -44.1362L366.25 -3.43302Z" stroke="#D9D9D9" stroke-width="7"/>
<path d="M275.25 -3.43302C275.583 -3.24056 275.583 -2.75943 275.25 -2.56699L204.75 38.1362C204.417 38.3287 204 38.0881 204 37.7032V-43.7032C204 -44.0881 204.417 -44.3287 204.75 -44.1362L275.25 -3.43302Z" stroke="#D9D9D9" stroke-width="7"/>
<path d="M323.25 74.567C323.583 74.7594 323.583 75.2406 323.25 75.433L252.75 116.136C252.417 116.329 252 116.088 252 115.703V34.2968C252 33.9119 252.417 33.6713 252.75 33.8638L323.25 74.567Z" stroke="#D9D9D9" stroke-width="7"/>
<path d="M413.25 73.567C413.583 73.7594 413.583 74.2406 413.25 74.433L342.75 115.136C342.417 115.329 342 115.088 342 114.703V33.2968C342 32.9119 342.417 32.6713 342.75 32.8638L413.25 73.567Z" stroke="#D9D9D9" stroke-width="7"/>
<path d="M275.25 152.567C275.583 152.759 275.583 153.241 275.25 153.433L204.75 194.136C204.417 194.329 204 194.088 204 193.703V112.297C204 111.912 204.417 111.671 204.75 111.864L275.25 152.567Z" stroke="#D9D9D9" stroke-width="7"/>
<path d="M326.25 226.567C326.583 226.759 326.583 227.241 326.25 227.433L255.75 268.136C255.417 268.329 255 268.088 255 267.703V186.297C255 185.912 255.417 185.671 255.75 185.864L326.25 226.567Z" stroke="#D9D9D9" stroke-width="7"/>
</g>
<defs>
<linearGradient id="paint0_linear_20_22" x1="554" y1="-95" x2="177.116" y2="254.703" gradientUnits="userSpaceOnUse">
<stop stop-color="#2B2B2B"/>
<stop offset="1" stop-color="#2F2F2F" stop-opacity="0"/>
</linearGradient>
</defs>
</svg>
